<svg width="113" height="108" viewBox="0 0 113 108" fill="none" xmlns="http://www.w3.org/2000/svg">
<g clip-path="url(#clip0_29_238)">
<path d="M25.9096 95.8785L6.95117 9.16699L92.9352 1.64436L96.2346 89.7125L62.2613 102.514L25.9096 95.8785Z" fill="#2CABDE"/>
<path d="M61.368 95.0791L88.8203 84.7345L86.0015 9.47582L50.8545 12.5508L61.368 95.0791Z" fill="#7FCAE8"/>
<path d="M54.8878 44.2145L69.1318 42.9683L68.7173 31.9061L53.4895 33.2384L52.124 22.5195L79.1162 20.158L79.2242 23.0566L80.341 52.826L56.2533 54.9334L54.8878 44.2145Z" fill="white"/>
<path d="M58.4983 72.0464L58.4527 72.0645L46.0542 69.8901L44.1986 61.4083L33.3945 62.3535L37.0461 79.052L59.8718 83.2167L59.919 83.1984L58.4983 72.0464Z" fill="#EBEBEB"/>
<path d="M69.525 53.314L70.057 67.7817L58.4624 72.0591L59.8831 83.2112L81.1745 75.1907L81.1057 73.3654L80.3243 52.3692L69.525 53.314Z" fill="white"/>
<path d="M52.1605 22.5164L53.526 33.2353L27.5253 35.51L27.0029 33.1202L25.8203 27.7289L25.1963 24.8755L52.1605 22.5164ZM54.8879 44.2162L56.2534 54.935L44.4166 55.9706L43.8941 53.5808L42.7108 48.1895L42.0875 45.336L54.8879 44.2162Z" fill="#EBEBEB"/>
</g>
<defs>
<clipPath id="clip0_29_238">
<rect width="100" height="100" fill="white" transform="matrix(0.996195 -0.0871558 0.126371 0.991983 0 8.71558)"/>
</clipPath>
</defs>
</svg>
