<svg width="115" height="107" viewBox="0 0 115 107" fill="none" xmlns="http://www.w3.org/2000/svg">
<g clip-path="url(#clip0_29_275)">
<path d="M50.2587 104.778C59.5316 104.111 65.9724 96.1453 64.6833 86.9382L62.3543 70.3036L45.6008 71.5087C36.3278 72.1758 29.8871 80.1414 31.1762 89.3485C32.4652 98.5556 40.9858 105.445 50.2587 104.778Z" fill="#0ACF83"/>
<path d="M26.5184 56.0792C25.2294 46.8721 31.6701 38.9065 40.943 38.2394L57.6966 37.0343L62.3546 70.3036L45.601 71.5087C36.3281 72.1757 27.8075 65.2863 26.5184 56.0792Z" fill="#A259FF"/>
<path d="M21.8602 22.8099C20.5712 13.6028 27.0119 5.63719 36.2848 4.97016L53.0384 3.76502L57.6964 37.0343L40.9428 38.2394C31.6699 38.9064 23.1493 32.017 21.8602 22.8099Z" fill="#EBCB7F"/>
<path d="M53.0386 3.76489L69.7922 2.55976C79.0651 1.89273 87.5857 8.78218 88.8747 17.9892C90.1638 27.1963 83.723 35.162 74.4501 35.829L57.6965 37.0341L53.0386 3.76489Z" fill="#ECDAB1"/>
<path d="M93.5324 51.2585C94.8215 60.4656 88.3808 68.4313 79.1078 69.0983C69.8349 69.7653 61.3143 62.8759 60.0253 53.6688C58.7362 44.4617 65.177 36.4961 74.4499 35.829C83.7228 35.162 92.2434 42.0515 93.5324 51.2585Z" fill="#2CABDE"/>
</g>
<defs>
<clipPath id="clip0_29_275">
<rect width="100" height="100" fill="white" transform="matrix(0.997423 -0.0717476 0.138656 0.990341 0.82959 7.52051)"/>
</clipPath>
</defs>
</svg>
