<svg width="116" height="110" viewBox="0 0 116 110" fill="none" xmlns="http://www.w3.org/2000/svg">
<g clip-path="url(#clip0_29_247)">
<path d="M104.239 39.2835L54.4976 1.33075C51.6347 -0.855113 47.6353 -0.430609 45.5658 2.27879L38.1128 12.0483L51.2152 22.0458C53.6942 20.8892 56.7951 21.1594 59.2219 23.0111C61.6618 24.8748 62.7406 27.8203 62.2593 30.5274L74.8872 40.1634C77.3703 38.9844 80.5003 39.2437 82.9396 41.109C86.3507 43.7097 87.1198 48.431 84.6578 51.6566C84.0729 52.4237 83.3338 53.0614 82.4829 53.5332C81.6321 54.0051 80.686 54.3019 79.6989 54.4067C78.7117 54.5115 77.7027 54.4222 76.7297 54.1439C75.7566 53.8656 74.8385 53.4039 74.0277 52.7849C72.8096 51.8549 71.8789 50.6049 71.3527 49.1922C70.8266 47.7796 70.7285 46.2673 71.0708 44.8459L59.2951 35.8607L63.6071 62.3408C64.4011 62.6222 65.1501 63.027 65.8247 63.5393C69.2342 66.1402 70.0031 70.86 67.5434 74.0901C65.082 77.3141 60.3236 77.8191 56.9164 75.218C53.506 72.6118 52.7372 67.892 55.1977 64.6673C55.787 63.8936 56.5333 63.2517 57.3931 62.7791L53.0396 36.0541C52.0571 35.778 51.1303 35.3133 50.314 34.6874C47.7313 32.7181 46.6685 29.5364 47.3673 26.7042L34.4499 16.8479L9.83661 49.1036C8.84367 50.4053 8.43805 52.0708 8.70894 53.7337C8.97982 55.3966 9.90503 56.9207 11.2811 57.9711L61.0236 95.9237C63.8881 98.1094 67.8859 97.6851 69.957 94.9755L105.685 48.1517C106.677 46.8496 107.083 45.1841 106.812 43.5211C106.541 41.8582 105.615 40.334 104.239 39.2835Z" fill="url(#paint0_linear_29_247)"/>
</g>
<defs>
<linearGradient id="paint0_linear_29_247" x1="49.8322" y1="-0.0413597" x2="60.2253" y2="97.8758" gradientUnits="userSpaceOnUse">
<stop offset="0.265" stop-color="#EBCB7F"/>
<stop offset="1" stop-color="#BEDCD2"/>
</linearGradient>
<clipPath id="clip0_29_247">
<rect width="100" height="100" fill="white" transform="matrix(0.994414 -0.105549 0.16078 0.98699 0 10.5549)"/>
</clipPath>
</defs>
</svg>
