<svg width="112" height="106" viewBox="0 0 112 106" fill="none" xmlns="http://www.w3.org/2000/svg">
<g clip-path="url(#clip0_29_249)">
<path fill-rule="evenodd" clip-rule="evenodd" d="M50.7282 7.20226C24.7151 8.63126 6.06379 30.7694 9.07734 56.6516C11.4881 77.357 27.0309 94.1805 46.4696 99.3495C48.8736 99.6548 49.569 98.1561 49.4249 96.9184C49.2948 95.801 48.8213 92.1119 48.3451 88.1973C35.5699 91.752 31.8307 83.5401 31.8307 83.5401C29.0572 78.2412 25.802 76.9706 25.802 76.9706C21.1885 74.2969 25.7925 74.1049 25.7925 74.1049C30.5605 74.1749 33.5759 78.5373 33.5759 78.5373C38.6114 85.4691 45.1889 83.0241 47.7378 81.6798C47.8079 78.6279 48.7879 76.4927 49.9989 75.2485C39.3979 74.6399 27.9302 71.2252 25.8395 53.2692C25.2438 48.1529 26.598 43.8715 29.2293 40.4234C28.6021 39.2708 26.4347 34.5931 28.241 27.9978C28.241 27.9978 32.0493 26.521 41.7573 32.0895C45.3947 30.8439 49.3646 30.1003 53.3666 29.8625C57.3705 29.6605 61.4641 29.9596 65.3505 30.7919C73.6357 24.235 77.7326 25.2774 77.7326 25.2774C81.0482 31.5906 79.9908 36.4462 79.639 37.6526C83.0417 40.7692 85.3561 44.8492 85.9518 49.9654C88.0475 67.9641 77.4887 72.5318 67.1342 74.2689C68.994 75.6303 70.8316 78.4002 71.3406 82.7715C72.0706 89.0416 72.6036 94.091 72.7833 95.6345C72.9285 96.8815 73.9474 98.2961 76.2808 97.7048C94.2647 90.4738 105.702 72.1737 103.292 51.476C100.278 25.5954 76.7437 5.77312 50.7282 7.20226Z" fill="url(#paint0_linear_29_249)"/>
<path d="M29.2972 76.0921C29.2205 76.3306 28.8605 76.4206 28.5065 76.28C28.1456 76.1467 27.9175 75.8399 28.0011 75.6002C28.0745 75.3541 28.4358 75.2678 28.7954 75.4097C29.1564 75.5438 29.3887 75.8535 29.2965 76.0929L29.2972 76.0921ZM31.4518 78.105C31.2521 78.3245 30.8017 78.2524 30.4655 77.9405C30.1186 77.6315 30.01 77.1978 30.2141 76.975C30.4225 76.7558 30.8598 76.8302 31.2067 77.1391C31.5525 77.4528 31.6638 77.8825 31.4527 78.1057L31.4518 78.105ZM33.6241 80.7011C33.3588 80.9172 32.8643 80.7561 32.524 80.3554C32.1868 79.9538 32.1285 79.4533 32.4017 79.2375C32.6694 79.0213 33.1561 79.1766 33.5006 79.5731C33.8369 79.9803 33.8953 80.4816 33.6241 80.7011ZM36.4716 83.1695C36.2472 83.4669 35.6876 83.4211 35.2401 83.0575C34.785 82.7022 34.6078 82.1707 34.8331 81.8741C35.0621 81.5757 35.6244 81.6244 36.0739 81.9855C36.5289 82.3401 36.7156 82.8718 36.4731 83.1686L36.4716 83.1695ZM40.1582 84.4907C40.0863 84.864 39.5768 85.0599 39.0242 84.9325C38.4727 84.8011 38.0741 84.3912 38.1401 84.0142C38.2062 83.6381 38.7188 83.4358 39.2757 83.5731C39.8271 83.7037 40.2255 84.1113 40.1582 84.4907ZM44.0467 84.559C44.105 84.9447 43.6898 85.2893 43.1314 85.3278C42.5689 85.3719 42.0761 85.0835 42.0263 84.7035C41.9809 84.3132 42.3872 83.973 42.9491 83.9312C43.5073 83.8904 44.0029 84.1756 44.0474 84.5582L44.0467 84.559ZM47.5629 83.7551C47.6738 84.1278 47.3296 84.5364 46.7854 84.6702C46.2511 84.801 45.7168 84.5945 45.6031 84.2251C45.491 83.8424 45.8422 83.4334 46.3766 83.3033C46.9225 83.1772 47.4481 83.3764 47.5629 83.7551Z" fill="url(#paint1_linear_29_249)"/>
</g>
<defs>
<linearGradient id="paint0_linear_29_249" x1="50.7286" y1="7.20224" x2="55.767" y2="98.919" gradientUnits="userSpaceOnUse">
<stop stop-color="#2CABDE"/>
<stop offset="1" stop-color="#BEDCD2"/>
</linearGradient>
<linearGradient id="paint1_linear_29_249" x1="37.2089" y1="74.8591" x2="37.8001" y2="85.621" gradientUnits="userSpaceOnUse">
<stop stop-color="#2CABDE"/>
<stop offset="1" stop-color="#BEDCD2"/>
</linearGradient>
<clipPath id="clip0_29_249">
<rect width="100" height="100" fill="white" transform="matrix(0.998495 -0.0548513 0.115652 0.99329 0.342773 5.98486)"/>
</clipPath>
</defs>
</svg>
