
<svg width="107" height="110" viewBox="0 0 107 110" fill="none" xmlns="http://www.w3.org/2000/svg">
<g clip-path="url(#clip0_29_230)">
<path d="M8.42285 1.20972L105.708 11.2311L98.4609 108.763L1.17566 98.7416L8.42285 1.20972Z" fill="url(#paint0_linear_29_230)"/>
<path d="M92.2271 84.6812C91.8451 80.1583 89.2288 76.1229 80.9151 71.7549C78.0391 70.0761 74.7921 68.7517 73.971 66.3872C73.7175 65.0344 73.726 64.2879 74.0075 63.5137C74.8377 60.9929 77.9774 60.5037 80.3633 61.4969C81.8962 62.1871 83.2942 63.555 84.0478 65.5851C88.4484 63.2922 88.4385 63.3093 91.5091 61.7383C90.5598 59.9596 90.0442 59.1309 89.3947 58.3449C87.0799 55.2574 83.7477 53.4469 78.2373 52.9915L75.3436 53.0679C72.5455 53.4807 69.8207 54.6564 68.1419 56.4359C63.1473 61.2002 63.7794 70.5039 69.103 74.8544C74.3151 79.5772 82.3551 81.3577 83.1023 85.349C83.7569 90.2085 79.1483 91.2851 74.722 90.278C71.481 89.2525 69.7747 87.3865 68.022 84.1324C64.2217 85.8708 64.2217 85.8708 60.3154 87.6446C61.059 89.6831 61.9269 90.6604 63.2906 92.5006C69.8052 100.393 87.4661 101.857 91.4351 91.3362C91.591 90.977 92.6273 88.581 92.2271 84.6812ZM57.9789 51.4833L48.8794 50.5459L47.0896 74.1271C46.7169 79.1429 46.634 83.7679 45.7156 85.0934C44.1784 87.7283 40.7542 87.0294 39.222 86.3299C37.6805 85.3766 36.9501 84.1717 36.1252 82.4899C35.9002 82.0082 35.7321 81.636 35.6689 81.602L27.933 85.3821C28.9751 88.0401 30.6242 90.4239 32.8394 92.0903C36.152 94.534 40.7649 95.6537 45.7225 95.0339C48.9636 94.4343 51.8433 92.7973 53.4934 90.0241C55.8498 86.4082 55.7496 81.7275 56.1119 76.5991C56.78 68.2403 57.3555 59.8734 57.9789 51.4833Z" fill="#0E0305"/>
</g>
<defs>
<linearGradient id="paint0_linear_29_230" x1="57.0655" y1="6.22041" x2="47.0481" y2="103.467" gradientUnits="userSpaceOnUse">
<stop stop-color="#2CABDE"/>
<stop offset="1" stop-color="#BEDCD2"/>
</linearGradient>
<clipPath id="clip0_29_230">
<rect width="100" height="100" fill="white" transform="matrix(0.994736 0.102468 -0.0741015 0.997251 7.41016 0)"/>
</clipPath>
</defs>
</svg>
