<svg width="112" height="121" viewBox="0 0 112 121" fill="none" xmlns="http://www.w3.org/2000/svg">
<g clip-path="url(#clip0_29_265)">
<path fill-rule="evenodd" clip-rule="evenodd" d="M99.8625 80.0779C99.808 77.7438 98.1243 75.8662 95.9581 75.3048C95.174 75.1013 94.3623 75.0153 93.5628 74.9503C92.5971 74.8715 91.6308 74.8898 90.6647 74.8324C89.997 74.7929 89.327 74.6979 88.664 74.6276L88.659 74.5382C90.1797 72.4581 91.7484 70.4144 93.2076 68.2871C94.3264 66.6552 95.3259 64.9304 96.3487 63.2264C98.0415 60.4028 99.486 57.4278 100.759 54.3633C101.979 51.4291 103.084 48.4357 103.718 45.258C103.971 43.9888 104.198 42.7084 104.356 41.4175C104.482 40.3878 104.504 39.3348 104.534 38.2881C104.569 37.089 104.362 35.9013 104.015 34.7269C103.556 33.1797 102.714 31.8114 101.812 30.4902C101.091 29.4324 100.276 28.4352 99.4679 27.4403C98.3166 26.0209 96.9746 24.7983 95.5628 23.6659C93.9643 22.3773 92.2369 21.2768 90.4167 20.3873C89.3134 19.8504 88.1744 19.3839 87.0488 18.9051C86.6439 18.7318 86.2499 18.4677 85.8341 18.3796L78.0069 16.722C77.7241 16.6621 77.4247 16.7507 77.1354 16.7229C75.2343 16.5375 73.3366 16.5033 71.4659 16.6874C70.7662 16.7565 70.1688 16.4931 69.5375 16.2981C69.0534 16.1486 68.5889 15.9133 68.1022 15.7848C66.2479 15.295 64.3969 14.7605 62.5287 14.3855C60.7386 14.0255 58.9311 13.9492 57.1369 14.081C55.6352 14.1911 54.153 14.4002 52.7565 14.8971C52.1586 15.1096 51.7263 14.9544 51.173 14.6645C49.314 13.6905 47.4368 12.7478 45.5319 11.8867C44.3445 11.3502 43.1049 10.946 41.873 10.549C40.6908 10.169 39.4975 9.83818 38.2962 9.55753C37.124 9.28301 35.94 9.03305 34.7564 8.89063C32.8715 8.66019 30.984 8.66483 29.1354 8.90446C27.0883 9.16794 25.1271 9.79295 23.3362 10.7526C21.5099 11.7308 19.9738 13.0722 18.6681 14.6987C17.292 16.4154 16.2522 18.345 15.4908 20.4419C15.0784 21.5779 14.7574 22.7675 14.4244 23.9394C14.3204 24.3042 14.8875 24.8111 14.0752 25.0243L13.4012 30.2892C14.1207 30.8013 13.4706 31.0226 13.47 31.383C13.4682 32.2494 13.4533 33.1202 13.4867 33.9877C13.5394 35.3607 13.6339 36.7386 13.7343 38.1129C13.8721 40.0333 14.0309 41.9536 14.2105 43.8737C14.3425 45.2706 14.5176 46.6688 14.7096 48.0633C15.0029 50.1933 15.2874 52.3253 15.6554 54.448C15.9972 56.4203 16.4265 58.3841 16.8504 60.3467C17.4377 63.0618 18.2152 65.7337 19.2226 68.35C20.0937 70.615 21.1426 72.7856 22.6754 74.7133C23.6857 75.9834 24.8555 77.043 26.2846 77.7516C27.4074 78.3078 28.5843 78.5952 29.8059 78.6C31.1975 78.6075 32.5428 78.2606 33.7221 77.59C33.86 77.5126 34.0069 77.4625 34.13 77.6844C34.5994 78.5248 35.2899 79.1653 36.0231 79.748C38.0019 81.3196 40.2716 82.1457 42.6035 82.7805C43.1679 82.9342 43.7533 82.973 44.3286 83.0781C45.4492 83.2836 46.5628 83.2926 47.6706 83.2057C48.251 83.1599 48.8242 83.0672 49.4185 82.9932C49.3696 83.6141 49.3321 84.2142 49.2739 84.81L48.9401 88.0551C48.8917 88.5495 48.8477 89.0464 48.8302 89.545C48.7843 90.8302 48.7359 92.1157 48.7233 93.4041C48.7155 94.2923 48.7107 95.1883 48.8035 96.0763C48.988 97.8684 49.3266 99.6523 49.8152 101.407C50.2803 103.108 51.1258 104.702 52.2817 106.056C53.7963 107.838 55.7073 108.866 57.8406 109.433C58.7227 109.669 59.6417 109.818 60.5366 109.842C61.9584 109.886 63.3752 109.847 64.7804 109.726C67.6325 109.467 70.1906 108.519 72.2631 106.55C73.443 105.428 74.4565 104.158 75.1927 102.675C75.8001 101.45 76.384 100.206 76.8854 98.9266C77.2813 97.9184 77.5501 96.8491 77.8473 95.7969C78.0439 95.1008 78.1995 94.3887 78.3578 93.6788C78.6153 92.5259 78.875 91.3743 79.103 90.2128C79.2614 89.4042 79.3646 88.58 79.5018 87.7654C79.5438 87.5172 79.6154 87.2768 79.6703 87.0322C79.7212 86.8058 79.8461 86.7502 80.0779 86.8033C80.8949 86.9891 81.7122 87.1844 82.5333 87.3201C83.4535 87.472 84.3818 87.628 85.3018 87.6653C86.6125 87.7197 87.9204 87.7133 89.2215 87.6461C90.7569 87.567 92.2092 87.1502 93.6228 86.6242C95.2696 86.0123 96.8019 85.2098 98.1124 84.0356C99.2524 83.0106 99.9002 81.6841 99.8625 80.0779ZM97.1573 80.2866C97.0161 80.985 96.6181 81.5247 96.0869 81.9455C93.5804 83.9322 90.6393 84.8367 87.399 84.9026C86.1681 84.9269 84.9161 84.8098 83.6778 84.6653C82.6204 84.5371 81.5669 84.3398 80.5238 84.0745C79.7587 83.8823 79.0187 83.5425 78.2477 83.2614C78.0758 83.9732 77.9037 84.7159 77.7159 85.4538L76.9783 88.2784C76.7497 89.1747 76.5452 90.0794 76.3137 90.9743C76.0879 91.8426 75.835 92.702 75.6039 93.5692C75.3883 94.3768 75.2012 95.1944 74.9735 95.9978C74.6236 97.229 74.2817 98.4651 73.8757 99.6741C73.3893 101.119 72.7522 102.484 71.8437 103.687C70.7356 105.157 69.3035 106.152 67.5672 106.746C65.7774 107.358 63.8918 107.475 61.9915 107.504C60.6465 107.524 59.2935 107.288 57.9852 106.887C55.7163 106.19 53.8841 104.779 52.6339 102.66C51.4405 100.638 50.7363 98.4612 50.68 96.1538C50.6564 95.056 50.668 93.9606 50.715 92.8692C50.7662 91.6561 50.8428 90.4463 50.9448 89.2406C51.0711 87.7104 51.215 86.1831 51.3766 84.6591C51.5748 82.7861 51.8005 80.9189 52.0131 79.0489L52.0177 78.9766C51.0094 79.3473 50.0102 79.7756 48.9692 80.0821C47.753 80.4384 46.4598 80.5309 45.1679 80.3539C44.1507 80.2181 43.1213 80.0725 42.129 79.7788C40.5021 79.2965 38.8931 78.6875 37.5261 77.5551C36.9718 77.0955 36.4008 76.5583 36.0578 75.9388C35.2351 74.4545 35.9138 72.9427 37.4996 72.4818C38.5956 72.1623 39.7455 72.1758 40.8925 72.1505C41.8903 72.1328 42.8834 72.0699 43.8691 71.9619C44.8427 71.8497 45.5303 71.2066 46.2084 70.5765L47.284 69.5698C46.9048 69.4473 46.5478 69.3288 46.1899 69.2179C45.1036 68.8796 44.0935 68.3505 43.1477 67.687C42.3379 67.1199 42.3303 67.0753 41.6118 67.6347C40.412 68.5697 39.2377 69.538 38.0567 70.4969C37.1877 71.2019 36.3226 71.9134 35.4572 72.6215C34.5998 73.3218 33.7835 74.081 32.8764 74.7095C31.5292 75.6428 29.9971 76.0513 28.2885 75.6067C27.1922 75.322 26.2328 74.7161 25.4068 73.8829C23.7022 72.1624 22.6766 70.0437 21.7759 67.856C20.6221 65.0527 19.8314 62.1592 19.2129 59.2273C18.7846 57.2009 18.3535 55.1723 18.0135 53.1367C17.6443 50.9246 17.3565 48.7027 17.0777 46.4835C16.8718 44.8078 16.6986 43.1306 16.5582 41.453C16.3884 39.5455 16.2495 37.6377 16.1415 35.7303C16.0724 34.443 16.1011 33.158 16.0766 31.8714C16.0434 30.1372 16.2148 28.4304 16.5212 26.7609C16.7961 25.2567 17.2059 23.7851 17.6133 22.3193C18.1775 20.2913 19.1095 18.4623 20.3255 16.8064C21.0701 15.7917 21.9458 14.9114 22.9283 14.1293C24.541 12.8455 26.3941 12.0632 28.4025 11.6066C29.8061 11.2878 31.2541 11.2236 32.7186 11.244C34.8924 11.2746 37.0296 11.7439 39.1638 12.2421C40.0969 12.4596 41.0064 12.8297 41.9291 13.1215C43.9156 13.7507 45.8333 14.5978 47.7128 15.5402C49.0827 16.2267 50.409 17.021 51.7613 17.7531C51.8971 17.8265 52.1048 17.8665 52.23 17.8142C54.2993 16.9558 56.4909 16.5644 58.7691 16.5574C59.6337 16.555 60.5121 16.6599 61.3798 16.7863C62.4348 16.9405 63.4975 17.1019 64.5337 17.3842C65.7793 17.7228 67.0042 18.1749 68.2293 18.6126C68.8239 18.8245 69.3874 19.1627 69.9868 19.3494C70.2737 19.4388 70.6093 19.2886 70.9258 19.2816C72.5387 19.2467 74.1502 19.1685 75.7671 19.2133C76.9709 19.2469 78.1854 19.3999 79.3904 19.5835C80.734 19.7884 82.0849 20.0164 83.4095 20.3638C85.0865 20.806 86.7327 21.4005 88.3279 22.1401C90.3122 23.0562 92.1851 24.1732 93.9262 25.5416C95.2272 26.5637 96.4446 27.6875 97.5049 28.977C98.1997 29.823 98.9139 30.6643 99.5231 31.5718C100.275 32.6909 101.044 33.8145 101.437 35.1274C101.733 36.1173 101.907 37.114 101.861 38.12C101.805 39.3704 101.769 40.63 101.6 41.8581C101.439 43.033 101.13 44.1758 100.867 45.326C100.269 47.9486 99.3601 50.4455 98.3323 52.8815C97.476 54.8922 96.5457 56.8642 95.5431 58.7936C94.6252 60.5739 93.6085 62.2975 92.5845 64.0115C91.8296 65.2819 91.0275 66.5199 90.1798 67.7231C88.5721 69.998 86.9166 72.2358 85.068 74.3077C84.7489 74.666 84.4424 75.0372 84.1283 75.4053C84.742 76.0081 85.4833 76.3314 86.2399 76.5776C86.9595 76.8128 87.6978 77.0185 88.434 77.1179C89.6122 77.2775 90.7971 77.3549 91.9785 77.4356C93.1488 77.5163 94.3178 77.4232 95.4867 77.7607C96.6541 78.0971 97.3809 79.1838 97.1573 80.2866ZM80.6654 74.1251C80.2487 73.3635 79.8211 72.6075 79.4161 71.8404C78.7806 70.6361 78.3769 69.3559 77.9716 68.0698C77.5875 66.8511 77.0766 65.666 76.6627 64.4537C75.9404 62.3387 75.1997 60.2262 74.5586 58.0903C73.752 55.4067 73.1935 52.6865 73.2622 49.9177C73.2913 48.7458 73.4081 47.5942 73.7821 46.5065C74.3804 44.77 75.4968 43.549 77.1928 42.9085C78.7658 42.3144 80.4273 42.367 82.1029 42.628C83.1427 42.7901 84.1739 43.0562 85.2454 43.2831L85.233 43.0919C84.7474 41.538 84.3084 39.9694 83.7558 38.4356C82.9762 36.2711 81.8848 34.2372 80.6272 32.2994C79.6954 30.8644 78.6623 29.497 77.5001 28.2361C76.3574 26.9952 75.1334 25.8437 73.7997 24.8314C72.2091 23.6246 70.5236 22.595 68.7206 21.7842C66.9881 21.005 65.2242 20.3791 63.397 19.9714C61.8385 19.6239 60.2786 19.3667 58.7127 19.402C56.3494 19.4547 54.128 19.968 52.1035 21.1327C50.9833 21.7778 49.955 22.5677 49.0415 23.4849C47.9644 24.5645 47.0509 25.783 46.2358 27.0909C45.1175 28.8852 44.2602 30.8177 43.5835 32.8473C43.2452 33.8589 42.95 34.8892 42.6519 35.9181C42.5477 36.2781 42.4944 36.6576 42.407 37.0768C42.7081 36.9878 42.9261 36.9161 43.147 36.8579L43.8628 36.6935C46.2862 36.1171 48.7437 35.9363 51.281 36.5541C52.359 36.8166 53.3669 37.2529 54.2676 37.9372C55.9952 39.251 56.8743 41.0489 57.0894 43.1345C57.2379 44.5739 57.2806 46.0188 57.3177 47.4586C57.3473 48.5831 57.3791 49.7201 57.2584 50.8224C57.0813 52.4332 56.7952 54.0242 56.5035 55.61C56.2547 56.9583 55.8043 58.244 55.1676 59.423C54.0147 61.5611 52.7688 63.6404 51.5824 65.7579C51.1906 66.4573 50.8634 67.1983 50.478 67.9771C50.9075 68.068 51.2564 68.1387 51.6044 68.2172C51.7401 68.2483 51.8787 68.2817 52.0061 68.3413C52.9989 68.8031 53.8268 69.4615 54.4529 70.4147C55.2882 71.6837 55.6392 73.0323 55.4814 74.4737C55.394 75.2726 55.2093 76.0533 55.1113 76.85C54.6525 80.5622 54.2053 84.2768 53.7612 87.9913C53.689 88.5984 53.6411 89.2115 53.6065 89.8258C53.5337 91.1118 53.4616 92.3986 53.4221 93.6884C53.3929 94.6032 53.3976 95.5234 53.4235 96.4435C53.4599 97.747 53.8825 98.9898 54.3879 100.199C54.8231 101.239 55.4419 102.176 56.3204 102.917C57.8132 104.178 59.5375 104.622 61.3288 104.653C62.5389 104.675 63.7454 104.553 64.9403 104.417C66.1147 104.289 67.224 103.883 68.1829 103.23C69.0873 102.61 69.7806 101.769 70.3011 100.788C71.3108 98.885 71.8209 96.7644 72.4052 94.677C72.6238 93.8956 72.8274 93.1085 73.0362 92.3234C73.2739 91.4297 73.5129 90.5372 73.7467 89.6435C73.9199 88.9774 74.0856 88.3081 74.2557 87.6413C74.4992 86.6836 74.7495 85.7281 74.9877 84.7686C75.1714 84.0266 75.3425 83.2789 75.5164 82.5333C75.7396 81.5809 75.9704 80.6301 76.1801 79.6732C76.3405 78.9471 76.4102 78.1882 76.6323 77.4894C77.0404 76.2084 77.8061 75.2069 79.0638 74.7211C79.5899 74.5182 80.1652 74.4331 80.7387 74.2887L80.6654 74.1251ZM37.3437 59.3373C36.9404 57.8303 36.7791 56.284 36.8665 54.7615C36.9497 53.3266 37.2959 51.9529 37.6191 50.5751C37.9328 49.2407 38.2236 47.8951 38.4395 46.5336C38.795 44.2959 38.9331 42.0153 39.1149 39.7424C39.2222 38.389 39.5494 37.0654 39.839 35.7474C40.1001 34.5602 40.3876 33.3755 40.7656 32.2314C41.4 30.3114 42.1545 28.4464 43.113 26.6866C44.0228 25.0184 45.0275 23.4188 46.3307 22.0631C47.2238 21.1332 48.2094 20.2961 49.1673 19.4053L48.9347 19.2661C46.3714 17.839 43.7404 16.5909 40.9837 15.7054C39.68 15.2868 38.3644 14.9246 37.0493 14.5641C36.6458 14.4532 36.226 14.4216 35.8128 14.3747C34.7899 14.2584 33.7623 14.0805 32.7433 14.0621C31.0094 14.03 29.3158 14.2348 27.6981 14.8099C26.2457 15.3261 24.9795 16.1229 23.871 17.1657C22.6466 18.3167 21.7424 19.7203 21.0237 21.269C20.1751 23.0958 19.6327 25.0456 19.2958 27.058C19.0009 28.8222 18.7384 30.6037 18.8143 32.4392C18.8709 33.8059 18.8508 35.1707 18.9311 36.5368C19.0404 38.3993 19.1747 40.2632 19.3675 42.1243C19.6427 44.7885 19.9166 47.4564 20.3066 50.113C20.6794 52.6586 21.1421 55.2009 21.6727 57.7282C22.1073 59.7909 22.6527 61.8406 23.2434 63.8743C23.628 65.199 24.1324 66.5021 24.6721 67.7809C25.2464 69.1386 25.9287 70.4563 26.9412 71.5677C28.2185 72.9709 29.2949 73.3747 30.8912 72.4704C31.5751 72.0827 32.1791 71.5532 32.7945 71.0571C33.7722 70.2693 34.7235 69.4487 35.6978 68.657C36.9385 67.6479 38.1914 66.6548 39.4367 65.653C39.7001 65.4414 39.9553 65.22 40.2129 65.004L39.8852 64.5963C38.7081 63.0137 37.843 61.2236 37.3437 59.3373ZM83.0961 31.1651C83.8511 32.4016 84.5558 33.6673 85.2081 34.9585C86.458 37.459 87.3785 40.068 87.9562 42.7732C88.2126 43.9657 88.3873 45.152 88.0899 46.3346C87.8825 47.1631 87.7806 48.0266 87.5972 48.8648C87.4443 49.5623 87.243 50.2456 87.0614 50.9346C86.7887 51.9737 86.4552 52.9967 86.259 54.0567C86.0726 55.0655 85.9987 56.1092 85.9312 57.1455C85.8623 58.1983 85.8682 59.2621 85.8294 60.3197C85.7851 61.5185 85.7774 62.7251 85.6594 63.9107C85.5623 64.8843 85.3527 65.8404 85.1457 66.7891C84.8974 67.932 84.4619 68.997 83.8894 69.9861C83.4871 70.6825 83.0281 71.343 82.5859 72.0318L82.7051 72.2099L82.8942 72.4195L83.1551 72.0799C85.3081 69.6058 87.2781 66.9663 89.0506 64.1808C90.187 62.3811 91.2815 60.5519 92.3333 58.6948C93.9776 55.8084 95.3742 52.7787 96.5566 49.6376C97.0872 48.2274 97.5405 46.7777 97.9647 45.3218C98.2957 44.1837 98.5986 43.0253 98.7842 41.8452C98.9813 40.5936 99.075 39.3097 99.1212 38.0292C99.157 37.0626 99.0484 36.059 98.5609 35.1638C97.7774 33.7228 96.9121 32.3202 95.7812 31.116C94.8292 30.1017 93.8837 29.0681 92.8385 28.1631C91.1812 26.7296 89.3313 25.6167 87.3655 24.7093C85.4474 23.8231 83.4692 23.1972 81.4576 22.7274C80.2717 22.45 79.0605 22.3264 77.8591 22.1882C76.7706 22.0627 75.6798 22.0108 74.5783 21.9256C75.6553 22.8342 76.7255 23.6657 77.7174 24.589C79.8028 26.5294 81.6142 28.7166 83.0961 31.1651ZM48.3452 65.7687C49.3845 63.5429 50.676 61.4812 51.938 59.3988C52.9611 57.7101 53.6408 55.8467 54.0407 53.8699C54.2384 52.8953 54.3468 51.8892 54.4258 50.8863C54.5193 49.7718 54.5603 48.6492 54.5486 47.5224C54.524 46.0837 54.4712 44.6383 54.3209 43.1992C54.1576 41.642 53.3993 40.4212 51.9225 39.7177C51.0228 39.2891 50.0983 39.1029 49.1397 39.0543C46.7984 38.9349 44.5884 39.3472 42.4711 40.1882C42.0451 40.3575 41.8028 40.5154 41.7975 41.1025C41.7859 42.3457 41.6595 43.5845 41.4975 44.8077C41.268 46.5389 40.9736 48.2562 40.6869 49.9744C40.5933 50.534 40.4412 51.0781 40.3097 51.6273C40.1079 52.468 39.8213 53.29 39.7167 54.1498C39.6088 55.0359 39.5823 55.9607 39.6843 56.8626C40.009 59.7227 41.1489 62.2485 43.283 64.3122C44.5956 65.5811 46.1223 66.4043 47.8546 66.8659C48.025 66.4849 48.1796 66.1237 48.3452 65.7687ZM48.5889 41.8731C48.3654 41.1539 48.6105 40.6495 49.355 40.5493C49.5364 40.524 49.7237 40.496 49.9064 40.5164C50.1572 40.5441 50.407 40.6161 50.6577 40.6692C51.5605 40.8651 52.4132 41.1771 53.0845 41.9178C53.5151 42.3926 53.5801 42.9158 53.2053 43.3593C52.6734 43.9885 51.9567 44.2092 51.1246 44.1046C49.8136 43.9392 48.9818 43.1334 48.5889 41.8731ZM84.5721 49.2485C84.7875 48.3995 84.9826 47.5438 85.2003 46.6953C85.288 46.3541 85.1182 46.2211 84.8296 46.1512C83.9218 45.9327 83.015 45.7072 82.1061 45.4972C81.0813 45.261 80.0601 45.2167 79.0587 45.4113C77.9476 45.6281 77.054 46.1632 76.5772 47.2577C76.2274 48.0652 76.0366 48.946 76.015 49.8527C75.967 51.2518 76.101 52.6655 76.4133 54.0569C76.8304 55.913 77.2774 57.7746 77.8635 59.5925C78.6577 62.0538 79.6031 64.4739 80.4689 66.9153C80.7003 67.5668 80.8795 68.2336 81.1113 68.9863C81.9297 67.7608 82.4718 66.3505 82.7015 64.8483C82.8926 63.6073 82.9544 62.3334 83.0424 61.0698C83.0951 60.2961 83.0861 59.5142 83.1103 58.7361C83.1439 57.652 83.1246 56.5575 83.2372 55.4877C83.3521 54.4001 83.5672 53.3274 83.7973 52.2658C84.0163 51.2472 84.3169 50.2547 84.5721 49.2485ZM82.6242 47.9748C82.1643 48.8508 81.3721 49.2323 80.4134 49.1908C79.5196 49.1511 78.795 48.661 78.3154 47.8327C77.974 47.2431 78.2055 46.6793 78.8575 46.4679C79.6062 46.2237 80.387 46.2872 81.3004 46.4194C81.5406 46.5172 81.9064 46.6337 82.2457 46.8106C82.7383 47.0653 82.8772 47.4951 82.6242 47.9748ZM51.8155 71.4249C51.3679 70.9043 50.7091 70.7401 50.1747 71.0942C49.5115 71.5348 48.909 72.0718 48.3076 72.5994C47.6133 73.2093 46.9527 73.8566 46.1053 74.2638C44.8725 74.8551 43.5154 74.9211 42.1538 74.967C41.0713 75.0036 39.9866 75.0206 38.9023 75.0465L38.8716 75.1817C39.1655 75.3943 39.4447 75.6413 39.7569 75.8149C41.296 76.6701 42.8957 77.2724 44.6103 77.4859C45.8482 77.6398 47.0491 77.6163 48.2224 77.3188C49.8369 76.9102 51.1552 76.0002 52.3227 74.8642C52.5181 74.6747 52.6363 74.3583 52.6933 74.0727C52.8924 73.0634 52.4769 72.1938 51.8155 71.4249ZM91.3165 80.2093C90.0068 80.076 88.6946 79.9509 87.3895 79.7517C86.7596 79.6557 86.1407 79.4005 85.5161 79.2149C84.4686 78.9039 83.4659 78.4464 82.6443 77.6834C82.1684 77.2427 81.7429 77.1144 81.1686 77.1854C80.3486 77.2871 79.6552 77.5589 79.3551 78.382C79.1512 78.9382 79.0272 79.5328 78.8988 80.1192C78.8754 80.2225 78.9805 80.4438 79.0765 80.4912C79.6618 80.7815 80.2465 81.1019 80.8591 81.2897C81.6114 81.5207 82.3893 81.6624 83.1608 81.786C83.9939 81.9194 84.834 82.0416 85.6673 82.0748C87.6314 82.1549 89.5592 82.0156 91.3523 81.2603C91.9987 80.9873 92.641 80.7047 93.2842 80.4262L93.2462 80.3306C92.6027 80.2922 91.9596 80.2754 91.3165 80.2093Z" fill="url(#paint0_linear_29_265)"/>
</g>
<defs>
<linearGradient id="paint0_linear_29_265" x1="62.02" y1="13.3362" x2="42.3587" y2="106.173" gradientUnits="userSpaceOnUse">
<stop stop-color="#2CABDE"/>
<stop offset="1" stop-color="#BEDCD2"/>
</linearGradient>
<clipPath id="clip0_29_265">
<rect width="100" height="100" fill="white" transform="matrix(0.978301 0.207188 -0.126973 0.991906 13.2734 0.624756)"/>
</clipPath>
</defs>
</svg>
