<svg width="108" height="103" viewBox="0 0 108 103" fill="none" xmlns="http://www.w3.org/2000/svg">
<g clip-path="url(#clip0_29_257)">
<path d="M82.5344 41.6397C79.7508 40.6557 78.2598 40.9112 75.2977 40.4909C70.7185 39.8434 69.0075 37.9824 68.5566 33.318C68.3038 30.7139 69.0883 26.9373 68.1406 24.5543C66.3272 20.0096 61.4831 17.8449 56.3925 18.8339C52.0938 19.6706 48.2747 23.7854 47.7718 28.1168C47.1979 33.0622 49.7209 37.377 54.4642 38.9879C56.7186 39.7538 59.1402 40.1798 61.5328 40.4321C65.921 40.8925 66.0861 43.354 67.1353 45.409C67.7978 46.7044 68.4375 47.9804 68.1684 51.7732C67.8993 55.566 67.0772 56.7953 66.2397 58.0437C64.9038 60.0191 63.3383 61.2915 58.9041 61.4788C56.4864 61.5809 54.0097 61.8531 51.6632 62.4753C46.7118 63.7859 43.5895 67.9179 43.4607 72.8781C43.3482 77.2217 46.5678 81.5575 50.7289 82.6597C55.6566 83.9672 60.7859 82.1116 63.2346 77.7007C64.5201 75.3878 65.3219 72.7466 65.9421 70.1707C67.0561 65.5547 69.023 63.8091 73.6689 63.4504C76.6773 63.2184 79.744 63.6411 82.6545 62.1408C85.7633 60.0749 88.6349 56.916 88.9535 52.4257C89.2721 47.9339 86.7599 43.136 82.5344 41.6397Z" fill="#EBCB7F"/>
<path d="M33.6874 61.2394C27.87 61.0568 23.461 56.1557 23.8744 50.3289C24.2877 44.5029 29.3702 39.8998 35.1876 40.0824C41.005 40.265 45.414 45.1661 45.0007 50.9921C44.5877 56.8134 39.5002 61.4219 33.6866 61.2394L33.6874 61.2394ZM12.7031 82.1268C6.89445 81.9304 2.50243 77.0111 2.93019 71.1801C3.35723 65.3593 8.45743 60.7707 14.2782 60.9722C20.09 61.1687 24.4828 66.088 24.0512 71.9181C23.6245 77.7343 18.5234 82.3236 12.7031 82.1268ZM91.1894 84.5907C85.3603 84.4397 80.9131 79.5702 81.2919 73.7572C81.6738 67.9209 86.7261 63.2793 92.5319 63.4287C98.361 63.5789 102.809 68.4484 102.429 74.2614C102.048 80.0931 96.9951 84.7401 91.1894 84.5907Z" fill="#FBF5E9"/>
</g>
<defs>
<clipPath id="clip0_29_257">
<rect width="100" height="100" fill="white" transform="matrix(0.999508 0.0313765 -0.070766 0.997493 7.97949 0.00195312)"/>
</clipPath>
</defs>
</svg>
