<svg width="116" height="111" viewBox="0 0 116 111" fill="none" xmlns="http://www.w3.org/2000/svg">
<g clip-path="url(#clip0_29_245)">
<path fill-rule="evenodd" clip-rule="evenodd" d="M7.96799 55.054C8.05589 55.5961 8.27464 55.9361 8.4211 56.274C9.37485 58.4708 10.9514 60.272 12.7355 61.8767C15.2769 64.1638 18.2176 65.9057 21.2023 67.5195C23.7911 68.9188 26.4212 70.276 29.0172 71.662C29.4629 71.8999 29.8937 72.1827 30.3839 72.4808C30.0429 72.7227 29.7609 72.9337 29.4643 73.1323C26.6412 75.0215 23.9649 77.0851 21.5796 79.4903C20.1421 80.9402 18.7718 82.4635 17.9352 84.3484C16.589 87.3802 16.4391 90.4679 18.307 93.54C18.8524 94.4373 19.5837 95.1837 20.5267 95.6907C20.8323 95.8547 21.171 96.0134 21.504 96.0535C22.3567 96.1545 23.2141 96.1874 24.0704 96.2472L26.4252 95.9846C28.9922 95.4654 31.2192 94.3166 33.1235 92.6109C36.0996 89.9448 37.8565 86.6179 38.1861 82.5612C38.4257 79.6127 37.9886 76.7361 36.6945 73.971C36.5721 73.7151 36.4381 73.4643 36.2929 73.2195C36.1503 72.9738 35.991 72.7371 35.7993 72.4326L40.6441 68.7917L40.7351 68.8507C40.6892 69.1769 40.6369 69.5029 40.6008 69.8312C40.3395 72.2027 40.2975 74.5907 40.8361 76.9623C41.4102 79.4893 42.5116 81.7922 44.3565 83.7521C45.8482 85.3374 48.7487 85.0811 49.7579 83.2124C50.1158 82.5486 50.4553 81.8586 50.6775 81.1377C51.2585 79.256 51.77 77.3497 52.309 75.453L52.4007 75.1069C52.4794 75.968 52.5312 76.7261 52.6212 77.4807C52.7616 78.6592 53.0198 79.8176 53.6045 80.8887C54.1048 81.8051 54.8083 82.4533 55.9297 82.457C56.6968 82.4592 57.2415 82.0502 57.7248 81.5547C58.4734 80.7865 59.0482 79.8684 59.4144 78.8562C60.454 76.0004 61.5359 73.1564 62.4263 70.2481C63.3897 67.1025 64.1572 63.8898 65.0091 60.7048L65.1439 60.1419C65.6624 61.346 66.0805 62.5353 66.6745 63.6392C67.3643 64.92 68.1616 66.1568 69.0051 67.3516C69.404 67.9158 69.432 68.3076 69.0947 68.8552C67.683 71.1469 66.3058 73.4608 64.9265 75.7725C64.6212 76.2828 64.3187 76.8015 64.0841 77.348C63.9437 77.6922 63.875 78.0637 63.8819 78.4412C63.8839 78.7892 64.0225 79.1294 64.2687 79.3906C64.5148 79.6518 64.8494 79.8136 65.2022 79.8421C65.9165 79.9133 66.6325 79.885 67.3291 79.758C69.7054 79.3156 71.753 78.2354 73.4531 76.601C75.6558 74.4838 76.0516 71.8839 74.9635 68.975C74.6687 68.1857 74.2518 67.4328 73.8438 66.6859C73.6603 66.349 73.6119 66.1039 73.7895 65.7514C75.3292 62.6942 76.5498 59.4965 77.6395 56.2427C77.6828 56.1147 77.7276 55.9864 77.8168 55.8447C78.763 58.4482 79.9537 60.9265 81.7193 63.0993C81.121 63.8556 80.5195 64.5479 79.9949 65.2953C78.8398 66.9416 77.891 68.6953 77.5791 70.7404C77.4454 71.6219 77.3768 72.5103 77.6453 73.4061C78.0622 74.7973 79.3757 75.5859 80.7221 75.1093C83.6032 74.0898 85.9595 72.4031 87.4449 69.713C88.4445 67.9019 88.2581 66.0259 87.4097 64.133C87.1777 63.6186 86.9199 63.1157 86.6349 62.5279C87.3365 62.2185 88.012 61.8658 88.7293 61.6144C92.4535 60.3099 96.3025 60.0388 100.253 61.0125C102.559 61.5812 104.536 62.7415 105.924 64.7575C107.619 67.2223 107.316 69.7727 105.11 71.694C104.904 71.873 104.66 72.0233 104.5 72.2365C104.45 72.3137 104.418 72.4011 104.405 72.4931C104.392 72.5851 104.399 72.6797 104.425 72.7708C104.456 72.8639 104.728 72.9547 104.873 72.9371C105.685 72.8408 106.276 72.3444 106.838 71.8393C108.247 70.5739 109.166 68.9797 109.102 67.0218L109.128 66.8714L108.864 65.621C108.828 65.5512 108.859 65.4748 108.844 65.4206C108.052 62.647 106.186 60.6345 103.71 59.1692C100.843 57.4734 97.7032 56.9923 94.5018 57.2159C91.9044 57.3915 89.392 58.0708 87.1072 59.2153C86.4514 59.5431 85.8092 59.9165 85.1542 60.274C85.0328 60.1156 84.9056 59.9648 84.7954 59.8067C83.8393 58.4242 82.7415 57.1233 82.2772 55.4681C81.9474 54.2926 81.5869 53.122 81.681 51.9128C81.7714 50.7496 81.948 49.5964 82.1031 48.4417C82.183 47.8472 82.0088 47.5384 81.4139 47.3406C81.2058 47.2665 80.9894 47.2222 80.7714 47.2092C79.3807 47.1639 78.0586 47.4243 76.8041 47.9503C76.3601 48.1369 76.0635 48.4335 76.0433 48.957C76.0319 49.2574 75.9572 49.5522 75.9203 49.8515C75.7718 51.0949 75.7271 52.3504 75.3573 53.5603C74.4313 56.5951 73.2904 59.5429 72.109 62.4749C71.9808 62.7913 71.8425 63.1034 71.6788 63.4881C70.9148 62.3638 70.1324 61.3656 69.7451 60.1368C69.3071 58.7471 68.9138 57.3549 69.0406 55.9136C69.1343 54.8387 69.3119 53.7742 69.4614 52.7072C69.5317 52.2001 69.4209 51.9502 68.9317 51.7415C68.6846 51.6362 68.4104 51.5488 68.1496 51.5392C66.7221 51.4828 65.3171 51.7563 64.047 52.3377C63.6474 52.5202 63.4699 52.8154 63.4111 53.2615C63.2387 54.5775 63.1272 55.9181 62.7917 57.1886C61.4329 62.332 60.0079 67.4568 58.585 72.5806C58.2882 73.6506 57.9064 74.6938 57.5461 75.7433C57.4549 76.0093 57.2982 76.252 57.1719 76.5062C57.0147 76.3658 56.9462 76.2651 56.9297 76.1586C56.832 75.5312 56.652 74.894 56.6741 74.2745C56.7464 72.4004 56.859 70.5298 57.0118 68.6642C57.1334 67.123 57.3171 65.5891 57.48 64.0536C57.535 63.5396 57.4617 63.0727 57.0326 62.6932C56.3122 62.0579 55.02 62.0441 54.3561 62.6687L54.054 62.8922L54.0322 62.3529C54.0057 61.1948 53.8532 60.0546 53.3558 58.9659C52.7358 57.609 51.5988 56.9146 50.1432 57.1214C49.4648 57.2178 48.7676 57.4128 48.1763 57.7296C45.689 59.0571 43.9443 61.1134 42.5635 63.5077C42.4355 63.7299 42.2636 63.9234 42.0574 64.0771C40.0116 65.5631 37.9562 67.0343 35.9024 68.5101L33.6163 70.1522C32.8406 69.5897 32.1223 68.9965 31.338 68.5127C28.9424 67.0323 26.5196 65.598 24.1124 64.1385C21.9787 62.8449 19.8939 61.4823 18.1704 59.6471C16.8883 58.2819 15.9539 56.7361 15.5926 54.9125C15.1329 52.5887 15.4535 50.3833 16.3276 48.2665C17.4457 45.5583 19.2018 43.2896 21.1964 41.19C23.3066 38.97 25.6626 37.0227 28.1375 35.209C31.6002 32.6719 35.2109 30.3657 39.2074 28.6644C43.3052 26.9197 47.5538 25.7102 52.1395 25.717C53.9422 25.7198 55.7266 25.9319 57.4446 26.6168C58.7603 27.1406 59.8916 27.8922 60.5711 29.1875C61.2409 30.462 61.4446 31.8062 61.3476 33.1868C61.1488 35.9831 60.0105 38.3961 58.4452 40.613C55.8774 44.2473 52.4575 46.9068 48.4383 48.8587C46.1276 49.9821 43.6673 50.8042 41.1163 51.3053C39.0259 51.7167 36.9208 51.76 34.7957 51.2505C33.3884 50.9127 32.1112 50.299 31.0064 49.3255C30.809 49.1511 30.5623 48.9657 30.2818 49.1805C30.0069 49.3915 29.9998 49.6843 30.1487 49.9638C30.397 50.4277 30.6354 50.9131 30.9702 51.3157C31.8113 52.3254 32.9094 53.0037 34.0871 53.5593C36.3496 54.6282 38.714 54.8098 41.1088 54.6472C44.743 54.4023 48.1777 53.4769 51.4935 52.1305C56.2273 50.2085 60.1438 47.3064 62.9798 43.0983C65.3411 39.5945 66.8137 35.7722 66.5503 31.3832C66.422 29.241 65.8564 27.1911 64.5445 25.3692C63.1219 23.3955 61.1472 22.0293 58.914 21.1848C55.6619 19.9555 52.2781 19.4049 48.9376 19.7751L45.5909 20.146C41.5454 20.5943 37.8208 22.1791 34.2418 23.9738C31.5327 25.333 28.91 26.8734 26.3908 28.5358C20.905 32.1575 15.9279 36.343 12.1603 41.7572C10.2832 44.4546 8.79572 47.3663 8.20356 50.6662C8.02316 51.6519 7.89157 52.6478 7.80924 53.6507M33.9289 79.0277C34.2278 82.495 33.1105 85.4568 30.9118 87.999C29.6749 89.4282 28.1667 90.5154 26.291 91.0467C25.6108 91.2391 24.9001 91.3461 24.1756 91.1335C23.1423 90.8304 22.7875 90.0023 22.6217 89.0966C22.3585 87.6531 22.6566 86.2886 23.1544 84.9664C23.8045 83.2427 24.9426 81.8574 26.1848 80.5437C28.1415 78.4734 30.3345 76.6619 32.6006 74.9302L32.7768 74.8322C33.3935 76.2083 33.8047 77.5891 33.9289 79.0277ZM51.041 61.9182C51.0366 63.0366 50.9865 64.1608 50.836 65.2608C50.3167 69.0685 49.4612 72.7972 48.4816 76.491C48.3007 77.1744 47.9801 77.8152 47.7177 78.4731C47.6714 78.5749 47.6115 78.6697 47.5397 78.7551C47.1623 79.2451 46.733 79.2692 46.4128 78.7182C46.0403 78.0781 45.7619 77.3796 45.5072 76.6864C45.3361 76.221 45.2776 75.7188 45.1691 75.2347C44.6375 71.7656 45.1914 68.4982 46.5222 65.366C47.0708 64.0743 47.6946 62.8323 48.8091 61.93C49.1558 61.6494 49.543 61.42 49.9594 61.2483C50.5895 60.9909 51.044 61.249 51.041 61.9182ZM67.103 77.3055L70.9926 71.2198C71.5266 73.2606 68.6636 77.77 67.103 77.3055ZM81.7963 71.8721C81.489 72.1025 81.1427 72.2821 80.8244 72.4988C80.5334 72.6974 80.4018 72.544 80.3484 72.2736C80.3133 72.0862 80.3073 71.896 80.3305 71.7096C80.61 69.3722 81.4868 67.3061 83.0029 65.5367L83.1169 65.4596C84.3389 67.7068 83.7819 70.3851 81.7963 71.8721Z" fill="#CB6699"/>
</g>
<defs>
<clipPath id="clip0_29_245">
<rect width="100" height="100" fill="white" transform="matrix(0.993916 -0.110141 0.16004 0.98711 0 11.8525)"/>
</clipPath>
</defs>
</svg>
