<svg width="110" height="113" viewBox="0 0 110 113" fill="none" xmlns="http://www.w3.org/2000/svg">
<g clip-path="url(#clip0_29_283)">
<path d="M51.664 26.6083C38.4321 28.2521 30.8456 35.9083 28.8966 49.5835C33.1764 42.3373 38.7118 39.1317 45.496 39.9678C49.3693 40.4421 52.3498 42.8518 55.6508 45.5223C61.0229 49.8662 67.241 54.8953 79.5364 53.3678C92.7675 51.7241 100.355 44.067 102.303 30.3887C98.0223 37.6385 92.4891 40.8451 85.7036 40.0084C81.831 39.5332 78.8536 37.124 75.5488 34.4539C70.1798 30.1096 63.9632 25.0803 51.664 26.6083ZM29.9178 59.532C16.6867 61.1757 9.09953 68.8328 7.15083 82.5111C11.4313 75.2614 16.9643 72.0549 23.7498 72.8915C27.6232 73.3666 30.6036 75.7755 33.9046 78.4461C39.2767 82.79 45.4948 87.819 57.7902 86.2916C71.0213 84.6479 78.6085 76.9915 80.5575 63.3163C76.2762 70.563 70.7428 73.7683 63.9574 72.9322C60.0849 72.4578 57.1074 70.0477 53.8026 67.3776C48.4336 63.0333 42.217 58.0041 29.9178 59.532Z" fill="#38BDF8"/>
</g>
<defs>
<clipPath id="clip0_29_283">
<rect width="100" height="100" fill="white" transform="matrix(0.992371 -0.123284 0.102108 0.994773 0 12.8757)"/>
</clipPath>
</defs>
</svg>
