<svg width="48" height="48" viewBox="0 0 48 48" fill="none" xmlns="http://www.w3.org/2000/svg">
<path d="M23.9999 0C18.3011 0.000242294 12.7883 2.07957 8.44792 5.86594C4.10756 9.6523 1.22286 14.8986 0.309983 20.6662C-0.602893 26.4337 0.515625 32.3461 3.4654 37.3455C6.41517 42.3448 11.0037 46.1049 16.41 47.9529C17.61 48.1683 18.06 47.4301 18.06 46.7841C18.06 46.1997 18.03 44.2618 18.03 42.201C12 43.3391 10.44 40.6939 9.96 39.3098C9.42738 37.9636 8.58307 36.7706 7.50001 35.834C6.66002 35.3726 5.46003 34.2345 7.46999 34.2038C8.23747 34.2892 8.97357 34.563 9.61591 35.002C10.2583 35.4411 10.7879 36.0324 11.16 36.7259C11.4882 37.3305 11.9296 37.8628 12.4588 38.2922C12.9881 38.7216 13.5947 39.0397 14.244 39.2283C14.8934 39.4168 15.5726 39.4722 16.2429 39.3912C16.9131 39.3101 17.5612 39.0943 18.1499 38.756C18.2538 37.5051 18.7975 36.3354 19.6799 35.4649C14.34 34.8498 8.76 32.7273 8.76 23.3152C8.72628 20.8696 9.60644 18.5035 11.22 16.7021C10.4863 14.5766 10.5721 12.244 11.46 10.1812C11.46 10.1812 13.4699 9.53527 18.0599 12.7034C21.987 11.5961 26.1328 11.5961 30.0599 12.7034C34.6498 9.50453 36.6598 10.1812 36.6598 10.1812C37.5478 12.244 37.6336 14.5766 36.8998 16.7021C38.5182 18.5004 39.3991 20.8686 39.3598 23.3152C39.3598 32.7581 33.7498 34.8498 28.4099 35.4649C28.9826 36.0601 29.4237 36.7748 29.7033 37.5602C29.9828 38.3457 30.0942 39.1837 30.0299 40.0172C30.0299 43.3085 29.9998 45.9536 29.9998 46.7842C29.9998 47.4301 30.4498 48.1991 31.6498 47.953C37.0466 46.0899 41.6219 42.321 44.5591 37.3191C47.4964 32.3172 48.6042 26.4078 47.685 20.6459C46.7658 14.8839 43.8794 9.6444 39.5409 5.86265C35.2024 2.08089 29.6944 0.00303874 23.9999 0Z" fill="url(#paint0_linear_91_317)"/>
<defs>
<linearGradient id="paint0_linear_91_317" x1="24" y1="0" x2="24" y2="48" gradientUnits="userSpaceOnUse">
<stop stop-color="#2CABDE"/>
<stop offset="1" stop-color="#BEDCD2"/>
</linearGradient>
</defs>
</svg>
