<svg width="104" height="100" viewBox="0 0 104 100" fill="none" xmlns="http://www.w3.org/2000/svg">
<path d="M17.8947 88.9201L7.10059 1.30322L92.9881 1.29725L88.1404 88.9019L53.3005 98.6487L17.8947 88.9201Z" fill="#EBCB7F"/>
<path d="M53.099 91.2007L81.2516 83.3236L85.3941 8.46167L50.2871 8.46411L53.099 91.2007Z" fill="#E8D5A9"/>
<path d="M51.3923 40.9602L37.1642 40.9612L35.8074 29.9567L51.0183 29.9556L50.6531 19.2103L23.6914 19.2122L24.0472 22.0949L27.6958 51.708L51.7575 51.7064L51.3923 40.9602ZM52.3408 68.8683L52.2936 68.8816L40.2095 65.6499L39.1534 57.0807L28.3589 57.0815L30.4386 73.9536L52.672 80.0627L52.7208 80.0494L52.3408 68.8683Z" fill="#EBEBEB"/>
<path d="M51.3544 40.9601L51.7196 51.7063L64.9595 51.7054L64.1855 65.6419L52.3032 68.8776L52.6832 80.0579L74.5186 73.9505L74.6187 72.1351L76.1837 43.8443L76.3474 40.9584L73.4505 40.9586L51.3544 40.9601ZM50.6152 19.2102L50.9804 29.9556L76.9523 29.9538L77.0859 27.5395L77.3913 22.0911L77.5504 19.2083L50.6152 19.2102Z" fill="white"/>
</svg>
