<svg width="115" height="106" viewBox="0 0 115 106" fill="none" xmlns="http://www.w3.org/2000/svg">
<g clip-path="url(#clip0_29_281)">
<path d="M104.147 49.8386C103.254 43.896 97.9564 39.1435 91.6386 38.0501L99.8641 1.07309L32.1214 4.77502L51.2832 40.3707C45.6034 42.2358 41.9841 47.3875 42.8603 53.2181C43.5041 57.5028 46.4605 61.172 50.436 63.3165C49.2816 65.2233 47.8805 67.0002 46.2462 68.7019C43.1646 71.8676 39.595 74.3659 35.5961 76.1119C31.4337 74.0057 29.1675 70.0098 30.1109 66.2701C35.6877 64.353 39.184 59.236 38.3211 53.4935C37.2609 46.4375 30.0115 41.0704 22.1888 41.4979C14.3364 41.927 8.81286 48.0194 9.87343 55.0776C10.3973 58.5643 12.4654 61.676 15.3533 63.8214C15.1906 64.2354 15.0288 64.6454 14.8701 65.0863C13.3332 69.1475 11.5862 73.7366 11.4141 78.7879C11.073 88.8866 15.2994 96.7525 23.2617 100.897C27.7456 103.217 32.4547 104.255 37.3186 103.99C45.6764 103.533 53.5992 99.2964 61.2498 95.1902C66.7101 92.2723 72.3413 89.2259 78.0891 87.5884C80.2105 86.9825 82.4554 86.5708 84.825 86.1251C89.6241 85.2296 94.581 84.2958 98.771 81.6756C103.663 78.615 106.591 73.787 106.843 68.4158C107.021 64.2856 105.611 60.2156 103.034 56.7267C104.126 54.6615 104.515 52.2579 104.147 49.8386ZM97.9493 50.1773C98.546 54.1484 95.4382 57.5741 91.0198 57.8155C86.6013 58.057 82.523 55.024 81.9263 51.0529C81.7331 49.7666 81.93 48.5181 82.4382 47.4248C82.6314 47.0092 82.8914 46.5938 83.1557 46.2328C83.4375 45.8609 83.7633 45.5246 84.1274 45.2302L84.1564 45.1982C84.3834 45.0129 84.6438 44.8249 84.9046 44.6401C84.9046 44.6401 84.9358 44.6384 84.9313 44.6083C85.0499 44.5441 85.1651 44.4522 85.2852 44.388C85.3156 44.3863 85.3415 44.3545 85.3743 44.3527C85.4948 44.2916 85.6446 44.2258 85.7935 44.1592C85.9361 44.099 86.0761 44.0337 86.2131 43.9634C86.2443 43.9617 86.2725 43.929 86.3029 43.9273C86.4269 43.8941 86.5461 43.8291 86.6676 43.7952C86.7012 43.7934 86.7606 43.7598 86.791 43.7581C86.9453 43.7224 87.0687 43.6853 87.2229 43.6488L87.2565 43.647L87.7192 43.5337C87.752 43.5319 87.8128 43.5286 87.8423 43.4997C87.9702 43.4927 88.0913 43.4557 88.2192 43.4487L88.3776 43.4401C88.5359 43.4314 88.6934 43.3955 88.8821 43.3852L89.2964 43.3626C89.4212 43.3558 89.5195 43.3504 89.6483 43.3706L89.7123 43.3671C89.9728 43.384 90.2295 43.3965 90.4941 43.4405C94.2204 43.9269 97.4255 46.6914 97.9493 50.1773ZM41.8471 10.0037L91.8522 7.27104L84.9487 38.3277C84.486 38.441 84.029 38.6085 83.5753 38.7766L68.1694 17.2946L59.3618 39.9557C58.8624 39.8404 58.3406 39.7809 57.8216 39.7236L41.8471 10.0037ZM70.6469 49.1612C69.6403 46.5079 67.7532 44.1925 65.3262 42.539L70.1142 30.2376L78.5895 42.0728C76.8844 43.9521 75.7937 46.2877 75.6075 48.8901L70.6469 49.1612ZM54.0443 45.5196C54.198 45.48 54.322 45.4467 54.4758 45.408L54.5702 45.4028C54.6941 45.3688 54.8228 45.3617 54.943 45.324L55.0709 45.317C55.1989 45.31 55.2892 45.2778 55.4171 45.2708L56.6575 45.2031C56.7823 45.1962 56.8838 45.218 56.9782 45.2128C57.0422 45.2093 57.0726 45.2076 57.1412 45.235C57.2732 45.2551 57.3676 45.2499 57.5009 45.273C57.5305 45.2714 57.5641 45.2696 57.6321 45.2931C57.7957 45.3146 57.9582 45.3329 58.0898 45.3561L58.121 45.3544C58.253 45.3745 58.385 45.3945 58.5186 45.4456C58.5521 45.4438 58.5871 45.4723 58.651 45.4688C58.7495 45.4907 58.8819 45.5138 58.9849 45.5658C59.0185 45.564 59.053 45.5894 59.0865 45.5875C59.22 45.6386 59.3533 45.6617 59.4898 45.7119L59.5202 45.7103C59.6867 45.7557 59.8232 45.8059 59.9644 45.8869L59.9956 45.8852C60.1313 45.9355 60.2719 46.0127 60.4084 46.0629C60.4396 46.0612 60.4443 46.0921 60.4739 46.0904C60.61 46.1375 60.7183 46.2196 60.8548 46.2698L60.8924 46.295C61.3117 46.5315 61.7051 46.799 62.0953 47.0666L62.1329 47.0918C62.4975 47.3882 62.8659 47.7146 63.1776 48.0723C64.1755 49.1705 64.8556 50.4879 65.0745 51.945C65.6713 55.9168 62.563 59.3395 58.1446 59.5809C53.7262 59.8224 49.6484 56.7924 49.0516 52.8206C48.5164 49.4787 50.6666 46.5103 54.0443 45.5196ZM22.7309 47.0267C27.1501 46.7852 31.2276 49.8182 31.8243 53.7893C32.4211 57.7611 29.3139 61.186 24.8947 61.4275C20.4763 61.669 16.3981 58.6367 15.8013 54.6649C15.2046 50.6938 18.3125 47.2681 22.7309 47.0267ZM100.398 67.7601C100.249 71.4525 98.2157 74.7922 94.8164 76.9066C91.622 78.8976 87.4476 79.7006 83.051 80.5165C80.6518 80.9638 78.1284 81.4483 75.7293 82.127C69.3364 83.9462 63.4089 87.1513 57.6533 90.2287C50.298 94.1755 43.3547 97.8957 36.4595 98.2725C32.8664 98.4689 29.5175 97.7304 26.1798 95.9834C18.5338 92.0229 17.6575 83.8618 17.8169 79.3587C17.9512 75.1436 19.4935 71.1133 20.9664 67.2598C21.0568 67.0235 21.1243 66.8188 21.2147 66.5825C21.9504 66.7737 22.7073 66.906 23.4866 66.9787C23.1899 73.1017 27.5608 79.1705 34.7014 81.8929L35.9962 82.397L37.2338 81.897C42.5319 79.8214 47.2478 76.6552 51.2145 72.5493C53.4632 70.2361 55.3057 67.7745 56.7668 65.1297C57.515 65.2048 58.2513 65.195 58.9822 65.155C65.595 64.7937 70.5421 60.4028 71.3084 54.8298L76.6473 54.5381C79.0664 59.9651 85.2398 63.7194 91.8526 63.358C94.4916 63.2138 96.84 62.4234 98.7687 61.1948C99.9199 63.2918 100.507 65.5053 100.398 67.7601Z" fill="url(#paint0_linear_29_281)"/>
</g>
<defs>
<linearGradient id="paint0_linear_29_281" x1="49.944" y1="3.80107" x2="55.3651" y2="103.003" gradientUnits="userSpaceOnUse">
<stop offset="0.445" stop-color="#BEDCD2"/>
<stop offset="1" stop-color="#2CABDE"/>
</linearGradient>
<clipPath id="clip0_29_281">
<rect width="100" height="100" fill="white" transform="matrix(0.99851 -0.0545655 0.148591 0.988899 0 6.44263)"/>
</clipPath>
</defs>
</svg>
