<svg width="109" height="104" viewBox="0 0 109 104" fill="none" xmlns="http://www.w3.org/2000/svg">
<g clip-path="url(#clip0_29_267)">
<path d="M93.2767 44.2438C93.2364 44.2451 93.198 44.2583 93.1664 44.2818L91.4229 45.4076C91.3901 45.43 91.3643 45.4607 91.3478 45.4968C91.3313 45.533 91.3247 45.5732 91.3287 45.6136L91.5055 47.7469C91.513 47.8372 91.5616 47.9043 91.6332 47.9473L93.5533 48.9533C93.5887 48.9744 93.6291 48.985 93.6694 48.9837C93.7097 48.9824 93.7481 48.9693 93.7798 48.9459L95.5203 47.8218C95.5533 47.799 95.5795 47.7679 95.5964 47.7314C95.6132 47.6949 95.6202 47.6543 95.6165 47.6134L95.44 45.4824C95.4368 45.4418 95.4232 45.4021 95.4004 45.3673C95.3777 45.3325 95.3465 45.3036 95.31 45.2836L93.3921 44.2752C93.357 44.2541 93.3168 44.2427 93.2767 44.2438ZM54.4379 58.2886C54.1044 58.2994 53.7793 58.3911 53.5098 58.559L44.9257 64.0878C44.6506 64.2662 44.431 64.5156 44.2887 64.8111C44.1464 65.1066 44.0864 65.4379 44.1147 65.7721L44.9805 76.223C45.0369 76.9035 45.4502 77.5272 46.0657 77.8492L48.5521 79.132C49.7515 79.6616 50.1582 79.6469 50.6775 79.6301C52.3719 79.5754 53.2577 78.5015 53.1093 76.7099L52.255 66.3976C52.2481 66.3259 52.2135 66.2582 52.1586 66.2089C52.1037 66.1596 52.0328 66.1324 51.9607 66.1331L50.8097 66.1703C50.7376 66.1738 50.6711 66.2052 50.6243 66.2579C50.5775 66.3106 50.5541 66.3803 50.559 66.4524L51.4135 76.7671C51.4792 77.5604 50.7104 78.3823 49.3212 77.7457L46.7392 76.3965C46.6449 76.3543 46.5893 76.2406 46.5818 76.1502L45.7159 65.697C45.7084 65.6067 45.7452 65.4931 45.832 65.4442L54.4148 59.9389C54.479 59.8915 54.593 59.8879 54.6874 59.9301L64.1365 64.853C64.2301 64.8961 64.282 64.9842 64.2914 65.0979L65.1572 75.5496C65.1666 75.6624 65.1298 75.7565 65.0437 75.8046L56.4604 81.3333C56.3962 81.3807 56.2822 81.3844 56.1879 81.3421L53.7689 80.0315C53.6972 79.9885 53.6048 79.9688 53.5406 80.0162C52.9381 80.3994 52.8312 80.4505 52.2375 80.6742C52.1053 80.7238 51.8871 80.8206 52.3591 81.0552L55.5138 82.7504C55.8205 82.8989 56.1434 82.9791 56.4823 82.9681C56.8212 82.9572 57.1519 82.8567 57.4135 82.7351L65.9976 77.2063C66.2727 77.0273 66.4924 76.7773 66.6346 76.4813C66.7768 76.1853 66.8367 75.8535 66.8082 75.5189L65.9424 65.0672C65.8861 64.3867 65.4729 63.7653 64.8575 63.4441L55.4057 58.4978C55.1022 58.3479 54.769 58.2759 54.4379 58.2886ZM68.9118 62.6066C68.4492 62.6234 68.0214 62.8227 67.7225 63.1607C67.4235 63.4987 67.2779 63.9478 67.3176 64.4092C67.3545 64.8705 67.5737 65.3076 67.9268 65.6243C68.28 65.9411 68.7383 66.1117 69.2011 66.0986C70.1514 66.0679 70.8751 65.249 70.7962 64.2968C70.7556 63.8366 70.5354 63.4015 70.1829 63.0855C69.8304 62.7695 69.3739 62.597 68.9118 62.6066ZM68.9128 62.9025C69.1051 62.8939 69.2992 62.9235 69.4836 62.9897C69.6681 63.0558 69.8393 63.1571 69.9873 63.2878C70.1353 63.4184 70.2571 63.5757 70.3457 63.7506C70.4343 63.9254 70.4879 64.1143 70.5034 64.3063C70.5692 65.1004 69.9696 65.8021 69.156 65.8284C68.3658 65.8539 67.6553 65.2164 67.5877 64.4004C67.5201 63.5845 68.1453 62.9273 68.9128 62.9025ZM68.3206 63.3986L68.4858 65.3933L68.8715 65.3809L68.806 64.5898L69.1449 64.5789C69.2807 64.5745 69.329 64.6182 69.361 64.7304C69.3629 64.7537 69.4714 65.2499 69.4788 65.3402L69.8849 65.3271C69.8321 65.2382 69.7869 64.9664 69.7511 64.8083C69.7086 64.5599 69.6717 64.3792 69.3981 64.3654C69.5302 64.3151 69.7502 64.24 69.7202 63.8772C69.6769 63.3556 69.224 63.3702 68.9992 63.3775L68.3206 63.3986ZM68.6865 63.7053L69.002 63.6951C69.116 63.6914 69.2956 63.6856 69.3181 63.9573C69.3256 64.0477 69.297 64.232 69.0471 64.2401L68.7309 64.2503L68.6865 63.7053ZM57.5174 65.6351C54.9406 65.7184 53.4941 66.8564 53.6462 68.6931C53.8096 70.6661 55.3912 71.1583 57.8755 71.3287C60.8593 71.5282 61.1215 71.9522 61.1703 72.5416C61.2548 73.5615 60.4754 74.0192 58.5771 74.0805C56.1815 74.1579 55.6134 73.5845 55.3327 72.389C55.3214 72.2527 55.2031 72.1668 55.0672 72.1712L53.8921 72.2091C53.8203 72.2122 53.7541 72.2434 53.7078 72.2959C53.6614 72.3484 53.6387 72.4179 53.6444 72.4896C53.7721 74.0312 54.7352 75.819 58.691 75.6912C61.5372 75.5993 63.0931 74.4109 62.9278 72.4161C62.7662 70.4658 61.4113 69.9873 58.603 69.7142C55.7697 69.4419 55.46 69.2474 55.4056 68.5902C55.3605 68.046 55.5487 67.3131 57.6273 67.246C59.4803 67.1862 60.2138 67.5723 60.5888 68.8101C60.607 68.8659 60.6429 68.9151 60.691 68.9502C60.739 68.9853 60.7965 69.0044 60.8546 69.0044L62.0517 68.9658C62.1204 68.9636 62.1846 68.917 62.227 68.8703C62.2639 68.8088 62.2811 68.7368 62.2764 68.6634C61.9157 66.4931 60.4104 65.5417 57.5174 65.6351Z" fill="#5FA04E"/>
<path d="M69.2522 21.1391C69.156 21.1411 69.0633 21.168 68.9831 21.2172C68.8998 21.2708 68.8329 21.3455 68.7889 21.4342C68.7448 21.5229 68.725 21.6225 68.7314 21.7234L69.9523 36.4612C69.9635 36.5967 69.9046 36.736 69.777 36.8307C69.7173 36.8661 69.649 36.8859 69.5782 36.8882C69.5073 36.8905 69.4361 36.8752 69.3709 36.8438L66.8624 35.5391C66.6784 35.4444 66.4751 35.398 66.2727 35.4045C66.0702 35.4111 65.8756 35.4703 65.7083 35.5764L56.5891 41.4409C56.4201 41.5463 56.2844 41.6957 56.1956 41.8739C56.1069 42.0521 56.0682 42.2528 56.0836 42.4557L57.0021 53.5428C57.0359 53.9507 57.2943 54.3296 57.6727 54.5219L67.7139 59.7677C67.8977 59.8623 68.1009 59.9086 68.3032 59.9021C68.5055 59.8955 68.6999 59.8364 68.8672 59.7304L77.9872 53.8658C78.3318 53.6502 78.5262 53.2567 78.4924 52.8487L76.203 25.2114C76.1673 24.7808 75.9088 24.4012 75.5304 24.2096L69.55 21.1989C69.4558 21.1565 69.3534 21.1361 69.2522 21.1391ZM13.8768 36.7968C13.6964 36.8026 13.5214 36.8738 13.3712 36.9692L4.24874 42.8136C4.07732 42.9218 3.9403 43.0749 3.85179 43.2572C3.76327 43.4395 3.72646 43.6445 3.74513 43.851L5.00059 58.7227C5.01755 58.9275 5.14611 59.1278 5.33481 59.2131C5.42323 59.2657 5.52397 59.292 5.6245 59.2888C5.72503 59.2855 5.82089 59.2529 5.90014 59.1948L11.3252 55.7463C11.6698 55.5306 11.8619 55.1372 11.8281 54.7292L11.2515 47.7687C11.2177 47.3607 11.4122 46.9672 11.7576 46.7515L14.0587 45.2681C14.2296 45.1486 14.4304 45.0969 14.6335 45.0903C14.8365 45.0838 15.044 45.1223 15.212 45.2309L17.7459 46.5582C18.1243 46.7505 18.3827 47.1293 18.4165 47.5373L18.9931 54.4978C19.0269 54.9058 19.2838 55.2847 19.6614 55.4771L25.5821 58.5592C25.6746 58.6119 25.779 58.638 25.8831 58.6347C25.9872 58.6313 26.0867 58.5985 26.17 58.5402C26.2557 58.4883 26.3244 58.4135 26.3688 58.3238C26.4132 58.2341 26.4317 58.1328 26.4222 58.0309L25.1902 43.1584C25.1564 42.7504 24.898 42.3715 24.5187 42.1785L14.5011 36.9327C14.3332 36.852 14.1526 36.8045 13.9696 36.793L13.8768 36.7968ZM92.4954 34.4216C92.2978 34.428 92.1061 34.4857 91.9335 34.5944L82.8109 40.4559C82.4663 40.6716 82.2742 41.065 82.308 41.4738L83.2265 52.5608C83.2603 52.9688 83.5164 53.3477 83.8948 53.54L93.8592 58.6727C94.0388 58.7674 94.2382 58.8139 94.4368 58.8075C94.6354 58.8011 94.8261 58.7419 94.9891 58.6362L100.485 55.2322C100.571 55.1802 100.639 55.1054 100.683 55.0157C100.728 54.926 100.746 54.8248 100.737 54.7229C100.729 54.6212 100.694 54.5221 100.635 54.436C100.576 54.35 100.496 54.2802 100.402 54.2341L90.3168 48.989C90.225 48.9405 90.146 48.8701 90.0875 48.7844C90.029 48.6986 89.9929 48.6005 89.9826 48.4994L89.6952 45.03C89.6856 44.9283 89.704 44.8273 89.7483 44.7379C89.7926 44.6484 89.8612 44.5739 89.9467 44.5222L92.8102 42.7014C92.8936 42.6431 92.9931 42.6104 93.0971 42.6071C93.2012 42.6037 93.3056 42.6298 93.3982 42.6824L96.544 44.3084C96.6361 44.3567 96.7154 44.427 96.7743 44.5127C96.8333 44.5984 96.8698 44.6966 96.8805 44.7979L97.1059 47.5191C97.1229 47.7239 97.2522 47.9242 97.4401 48.0087C97.5327 48.0615 97.6373 48.0878 97.7415 48.0844C97.8458 48.081 97.9454 48.0482 98.0288 47.9897L103.446 44.4735C103.612 44.3663 103.744 44.2156 103.829 44.0368C103.914 43.8581 103.948 43.6577 103.929 43.4563L103.705 40.7585C103.671 40.3505 103.413 39.974 103.057 39.7802L93.0852 34.5564C92.9013 34.4619 92.6984 34.4152 92.4961 34.4208L92.4954 34.4216ZM66.9473 43.5483C66.9981 43.5467 67.0505 43.5567 67.0986 43.5786L70.5312 45.3772C70.6255 45.4195 70.6808 45.5301 70.6884 45.6212L71.0039 49.43C71.0133 49.5437 70.9749 49.6371 70.888 49.6851L67.7702 51.6953C67.726 51.7192 67.6765 51.7324 67.6254 51.7341C67.5743 51.7357 67.5228 51.7258 67.475 51.7049L64.0416 49.9063C63.9473 49.864 63.8917 49.7511 63.8842 49.66L63.5687 45.8511C63.5592 45.7375 63.5987 45.6464 63.6847 45.5976L66.8026 43.5881C66.8468 43.5637 66.8958 43.55 66.9473 43.5483Z" fill="url(#paint0_linear_29_267)"/>
<path d="M40.6854 36.2925C40.5017 36.1979 40.2986 36.1515 40.0964 36.1581C39.8942 36.1646 39.7 36.2238 39.5328 36.3297L30.4755 42.147C30.3093 42.2538 30.177 42.4042 30.0922 42.5827C30.0073 42.7612 29.973 42.9614 29.9928 43.1626L30.9074 54.2037C30.9413 54.6124 31.1997 54.9905 31.5555 55.1836L41.5256 60.3856C41.7093 60.4802 41.9124 60.5265 42.1146 60.52C42.3167 60.5134 42.511 60.4543 42.6782 60.3484L51.7348 54.5319C52.0794 54.3162 52.2513 53.9242 52.2174 53.5155L51.3028 42.4744C51.269 42.0664 51.0105 41.6875 50.6548 41.4953L40.6854 36.2925Z" fill="url(#paint1_linear_29_267)"/>
<path d="M50.6777 41.4945L40.663 36.2931C40.5653 36.2487 40.4638 36.2141 40.36 36.1897L31.1716 54.9227C31.2716 55.0334 31.3915 55.1201 31.5104 55.185L41.5259 60.3855C41.81 60.5356 42.13 60.5705 42.416 60.4699L50.9437 41.6904C50.8704 41.6063 50.7794 41.5393 50.6777 41.4945Z" fill="url(#paint2_linear_29_267)"/>
<path d="M51.7576 54.5304C52.0162 54.3628 52.1967 54.0845 52.2629 53.7865L40.3121 36.168C40.0381 36.1315 39.7456 36.1636 39.5105 36.3305L30.4738 42.1237L42.2621 60.5203C42.3953 60.4934 42.55 60.4431 42.6802 60.3702L51.7576 54.5304Z" fill="url(#paint3_linear_29_267)"/>
</g>
<defs>
<linearGradient id="paint0_linear_29_267" x1="103.592" y1="39.3962" x2="4.0591" y2="47.6415" gradientUnits="userSpaceOnUse">
<stop stop-color="#2CABDE"/>
<stop offset="1" stop-color="#EBCB7F"/>
</linearGradient>
<linearGradient id="paint1_linear_29_267" x1="44.3231" y1="40.2889" x2="36.5495" y2="57.8941" gradientUnits="userSpaceOnUse">
<stop stop-color="#3F873F"/>
<stop offset="0.33" stop-color="#3F8B3D"/>
<stop offset="0.637" stop-color="#3E9638"/>
<stop offset="0.934" stop-color="#3DA92E"/>
<stop offset="1" stop-color="#3DAE2B"/>
</linearGradient>
<linearGradient id="paint2_linear_29_267" x1="39.7668" y1="49.675" x2="62.2532" y2="30.8035" gradientUnits="userSpaceOnUse">
<stop offset="0.138" stop-color="#3F873F"/>
<stop offset="0.402" stop-color="#52A044"/>
<stop offset="0.713" stop-color="#64B749"/>
<stop offset="0.908" stop-color="#6ABF4B"/>
</linearGradient>
<linearGradient id="paint3_linear_29_267" x1="30.1021" y1="48.6907" x2="52.0244" y2="46.8746" gradientUnits="userSpaceOnUse">
<stop offset="0.092" stop-color="#6ABF4B"/>
<stop offset="0.287" stop-color="#64B749"/>
<stop offset="0.598" stop-color="#52A044"/>
<stop offset="0.862" stop-color="#3F873F"/>
</linearGradient>
<clipPath id="clip0_29_267">
<rect width="100" height="100" fill="white" transform="matrix(0.999479 -0.0322789 0.0825568 0.996586 0.452637 4.10669)"/>
</clipPath>
</defs>
</svg>
