<svg width="102" height="104" viewBox="0 0 102 104" fill="none" xmlns="http://www.w3.org/2000/svg">
<path d="M51.0519 60.4451C55.9685 60.298 60.014 56.1916 60.0879 51.2734C60.1617 46.3552 56.2358 42.4875 51.3193 42.6346C46.4027 42.7818 42.3571 46.8881 42.2833 51.8064C42.2095 56.7246 46.1353 60.5923 51.0519 60.4451Z" fill="url(#paint0_linear_29_253)"/>
<path d="M85.2194 35.8419C83.5108 35.2684 81.7241 34.6972 79.8581 34.2065C80.3548 32.3177 80.7734 30.4312 81.1127 28.6252C82.9074 18.2647 81.2204 11.0537 76.2648 8.39112C74.794 7.57625 73.16 7.23476 71.2858 7.29086C65.8195 7.45448 58.8085 11.7246 51.6784 18.731C44.7523 12.1453 37.8633 8.29131 32.397 8.45494C30.5228 8.51104 28.8771 8.95071 27.3804 9.8544C22.3393 12.8943 20.4342 20.2129 21.9205 30.397C22.2059 32.1843 22.5682 34.0474 23.0086 35.9082C21.1262 36.5111 19.3219 37.1117 17.5934 37.8661C7.77586 41.9079 2.38835 47.2225 2.30158 53.0031C2.21482 58.7837 7.52564 63.7781 17.1525 67.2378C18.8611 67.8113 20.6478 68.3825 22.5138 68.8732C22.0171 70.762 21.5985 72.6485 21.2592 74.4545C19.4645 84.815 21.1515 92.026 26.1071 94.6886C27.5779 95.5035 29.2119 95.845 31.0861 95.7889C36.6305 95.6229 43.6415 91.3528 50.6935 84.3487C57.6196 90.9344 64.5086 94.7884 69.9749 94.6248C71.8491 94.5687 73.4948 94.129 74.9914 93.2253C80.0326 90.1854 81.9377 82.8668 80.4514 72.6827C80.166 70.8954 79.8037 69.0323 79.3633 67.1715C81.2457 66.5686 83.0499 65.968 84.7785 65.2136C94.596 61.1718 99.9835 55.8572 100.07 50.0766C100.157 44.296 94.9243 39.2992 85.2194 35.8419ZM74.0197 12.3624C77.1932 14.1413 78.1997 19.8892 76.7491 28.1311C76.4902 29.7786 76.0739 31.5088 75.5784 33.3195C71.5318 32.5037 67.2462 32.0073 62.7229 31.7523C60.1241 28.0822 57.4414 24.805 54.7539 21.8403C60.6182 15.9649 66.5336 11.8837 71.2971 11.7411C72.3122 11.7108 73.2458 11.9171 74.0197 12.3624ZM64.5783 58.9471C63.1351 61.4889 61.4577 64.0377 59.7022 66.5888C56.8094 66.9097 53.9189 67.0743 50.9514 67.1631C47.9059 67.2543 45.0178 67.2626 42.21 67.1124C40.5296 64.6641 39.0053 62.2112 37.6372 59.7535C36.1922 57.2201 34.8264 54.6062 33.6157 52.0658C34.9038 49.4506 36.3493 46.7525 37.8717 44.1303C39.3149 41.5885 40.9923 39.0397 42.7478 36.4885C45.6406 36.1677 48.5311 36.0031 51.4985 35.9143C54.544 35.8231 57.4322 35.8147 60.2399 35.9649C61.9204 38.4132 63.4447 40.8662 64.8128 43.3238C66.2578 45.8573 67.6235 48.4711 68.8343 51.0116C67.4681 53.6291 66.1018 56.2467 64.5783 58.9471ZM71.0984 56.1752C72.2287 58.8742 73.126 61.5021 73.9451 64.1324C71.2806 64.8368 68.4624 65.3896 65.4891 65.869C66.4484 64.3568 67.4871 62.7641 68.3707 61.0979C69.3324 59.4294 70.216 57.7633 71.0984 56.1752ZM50.7896 77.9431C48.9459 75.9682 47.1827 73.8347 45.4987 71.6208C47.2936 71.6451 49.0885 71.6695 50.8846 71.6157C52.6807 71.5619 54.4779 71.4301 56.2752 71.2982C54.5232 73.615 52.6943 75.856 50.7896 77.9431ZM36.4408 66.6605C33.4792 66.3587 30.675 65.9742 28.0293 65.4287C28.927 62.8252 29.9051 60.0631 31.1175 57.2939C31.953 58.8305 32.7874 60.4453 33.701 61.9795C34.6123 63.67 35.5271 65.1262 36.4408 66.6605ZM31.2735 46.9045C30.1431 44.2055 29.2459 41.5776 28.4268 38.9473C31.0912 38.2429 33.9095 37.6901 36.8828 37.2107C35.9234 38.7229 34.8848 40.3156 34.0012 41.9818C33.0395 43.6503 32.1559 45.3164 31.2735 46.9045ZM51.5823 25.1366C53.4259 27.1115 55.1892 29.245 56.8731 31.4589C55.0782 31.4346 53.2834 31.4102 51.4873 31.464C49.6912 31.5178 47.894 31.6496 46.0967 31.7815C47.8487 29.4647 49.6776 27.2237 51.5823 25.1366ZM68.672 41.022L65.9311 36.4192C68.8927 36.721 71.6969 37.1055 74.3426 37.651C73.4449 40.2545 72.4668 43.0167 71.2544 45.7858C70.42 44.1711 69.5856 42.5563 68.672 41.022ZM26.3029 29.6412C25.0985 21.4787 26.2785 15.6654 29.5083 13.6948C30.2963 13.2027 31.2369 12.9403 32.252 12.9099C36.9374 12.7696 42.7367 16.422 48.5067 22.0273C45.729 25.0775 42.9443 28.5965 40.2329 32.4255C35.6978 32.9517 31.3923 33.7833 27.3188 34.7641C26.8772 32.9815 26.5906 31.2723 26.3029 29.6412ZM6.67463 52.8722C6.72973 49.2008 11.2395 45.1617 19.0919 42.0377C20.6631 41.366 22.3892 40.7678 24.1143 40.2476C25.3051 44.116 26.8047 48.2094 28.6167 52.2935C26.6804 56.4898 24.9796 60.6009 23.7496 64.5418C13.0201 61.7397 6.60896 57.2467 6.67463 52.8722ZM28.3522 90.7173C25.1787 88.9384 24.1722 83.1905 25.6228 74.9486C25.8817 73.3011 26.298 71.5709 26.7935 69.7602C30.8401 70.576 35.1257 71.0724 39.649 71.3274C42.2478 74.9975 44.9305 78.2747 47.6179 81.2394C41.7537 87.1149 35.8383 91.196 31.0748 91.3386C30.0596 91.3689 29.1261 91.1627 28.3522 90.7173ZM76.069 73.4385C77.2734 81.601 76.0934 87.4143 72.8635 89.385C72.0756 89.877 71.135 90.1394 70.1198 90.1698C65.4344 90.3101 59.6351 86.6577 53.8651 81.0524C56.6429 78.0022 59.4276 74.4832 62.1389 70.6542C66.674 70.128 70.9795 69.2964 75.0531 68.3156C75.4947 70.0982 75.7812 71.8074 76.069 73.4385ZM83.28 61.042C81.7088 61.7137 79.9826 62.3119 78.2576 62.8321C77.0668 58.9637 75.5671 54.8703 73.7551 50.7862C75.6914 46.5899 77.3923 42.4788 78.6223 38.5379C89.3518 41.34 95.7629 45.833 95.6973 50.2075C95.6421 53.8789 91.0543 57.9203 83.28 61.042Z" fill="url(#paint1_linear_29_253)"/>
<defs>
<linearGradient id="paint0_linear_29_253" x1="60.0879" y1="51.2734" x2="42.2953" y2="51.0063" gradientUnits="userSpaceOnUse">
<stop stop-color="#2CABDE"/>
<stop offset="1" stop-color="#EBCB7F"/>
</linearGradient>
<linearGradient id="paint1_linear_29_253" x1="100.07" y1="50.0766" x2="2.36753" y2="48.61" gradientUnits="userSpaceOnUse">
<stop stop-color="#2CABDE"/>
<stop offset="1" stop-color="#EBCB7F"/>
</linearGradient>
</defs>
</svg>
