<svg width="113" height="109" viewBox="0 0 113 109" fill="none" xmlns="http://www.w3.org/2000/svg">
<g clip-path="url(#clip0_29_260)">
<path d="M72.8784 74.5801C64.0891 88.2065 50.6249 96.6877 34.0076 98.3668C31.4442 98.7477 28.8536 98.8122 26.2954 98.5589C16.959 97.7095 8.88618 93.0548 5.52688 86.328C1.00795 77.3632 1.35594 59.2603 21.4104 47.6702C21.5304 49.7275 21.9452 52.572 22.245 54.2614C18.2996 56.6055 14.9115 59.7901 12.3356 63.5757C8.07309 69.9619 7.61617 76.6864 10.8947 83.2413C13.1731 87.6666 17.2904 90.605 22.8963 91.899C29.9069 93.4454 37.3032 92.747 44.0387 89.9025C54.5763 85.624 61.9413 80.0375 67.3112 71.9724C66.2496 70.6066 65.7353 68.8887 65.8633 67.1365C66.0326 65.2592 66.9434 63.5005 68.3958 62.2466C69.8482 60.9926 71.7235 60.3458 73.6103 60.448L73.8748 60.472C75.7028 60.6291 77.3766 61.4802 78.55 62.8492C79.7234 64.2182 80.3066 66.0004 80.1788 67.8269C80.0511 69.6534 79.2222 71.3845 77.8637 72.6619C76.5052 73.9394 74.721 74.6656 72.8804 74.69L72.8784 74.5801ZM97.1466 60.9508C105.302 72.5437 103.977 85.1949 99.3868 92.1864C95.1253 98.5648 85.2609 104.441 73.1236 103.337C67.4721 102.706 62.0656 100.864 57.2753 97.9357C59.2153 96.8342 61.9974 95.0411 63.5484 93.9042C67.2678 95.9592 71.3865 97.2454 75.6648 97.688C83.523 98.4029 89.9334 95.2856 94.3194 88.9185C97.1526 84.7073 97.9336 79.5411 96.4428 74.0427C94.6341 67.1307 90.6375 61.0421 85.031 56.6575C77.7177 50.5678 68.6623 46.8522 59.0306 45.989L56.7509 45.7816C56.066 46.9567 55.0696 47.9287 53.8745 48.5877C52.6793 49.2466 51.3332 49.566 49.9886 49.5099L49.7474 49.4879C47.9017 49.2971 46.2276 48.3966 45.0805 46.9778C43.9335 45.5589 43.4039 43.7334 43.6042 41.889C43.8046 40.0446 44.7191 38.3267 46.1535 37.1C47.5879 35.8733 49.4293 35.2346 51.2864 35.3195L51.5432 35.3428C52.83 35.4609 54.0473 35.93 55.0616 36.6986C56.0759 37.4672 56.8478 38.5056 57.2925 39.6998L59.3232 39.8846C75.5064 41.357 88.9383 48.8356 97.1466 60.9508ZM30.5303 72.9224C30.5583 71.623 31.0334 70.3576 31.8766 69.3365C26.3154 56.4429 24.464 40.5704 32.3164 24.9379C38.0163 13.1708 49.5639 5.91857 60.9699 6.95633C73.1384 8.06346 84.483 19.8289 83.4382 40.4165C81.6184 39.6159 78.9642 38.4414 77.3419 37.9488C77.7677 31.2214 74.1839 14.0388 60.7161 13.0643C55.8836 12.7579 48.5033 14.3836 44.2697 18.7183C39.0581 23.8783 35.5738 30.4919 34.3171 37.6094C32.2335 47.336 33.3119 57.3665 37.3952 66.2399C37.6917 66.1624 37.9993 66.1477 38.2977 66.1965L38.5467 66.2192C40.4328 66.3565 42.1619 67.2342 43.3536 68.6593C44.5453 70.0845 45.1019 71.9402 44.901 73.8183C44.7002 75.6964 43.7583 77.443 42.2825 78.674C40.8068 79.9049 38.9181 80.5193 37.032 80.382L36.7752 80.3587C34.9401 80.1851 33.2667 79.3126 32.1039 77.9229C30.941 76.5332 30.3784 74.7336 30.5332 72.8991L30.5303 72.9224Z" fill="#7FBEA7"/>
</g>
<defs>
<clipPath id="clip0_29_260">
<rect width="100" height="100" fill="white" transform="matrix(0.995887 0.0906091 -0.124314 0.992243 12.4316 0)"/>
</clipPath>
</defs>
</svg>
