<svg width="121" height="118" viewBox="0 0 121 118" fill="none" xmlns="http://www.w3.org/2000/svg">
<g clip-path="url(#clip0_29_262)">
<path d="M31.9531 39.3264L108.195 55.1543L94.9047 111.154L18.6631 95.3257L31.9531 39.3264Z" fill="white"/>
<path d="M12.709 48.8186L1.43404 96.3271L97.0515 116.178L119.601 21.1604L23.9839 1.31006L12.709 48.8186ZM90.6634 61.0141C92.8282 62.0177 94.6272 63.6401 95.8334 65.6766C96.5022 66.7777 97.0305 67.9587 97.4066 69.1935C97.3778 69.3152 92.5886 71.2321 89.704 72.2604C89.5977 72.3021 89.3244 71.8306 89.0615 71.1459C88.789 70.2628 88.2927 69.468 87.6188 68.8358C86.945 68.2036 86.1156 67.7545 85.2081 67.5305C82.3559 66.731 80.1304 67.8562 79.5558 70.345C79.385 70.9589 79.3818 71.6025 79.5467 72.2095C79.8696 73.6563 80.8694 74.6854 84.2082 77.0535C90.3598 81.4013 92.8314 83.9402 94.0007 87.0623C95.3138 90.5252 94.5998 95.5294 92.3606 98.877C89.8926 102.512 85.5076 104.417 79.9955 104.206C77.5089 103.979 75.0687 103.446 72.7313 102.618C69.1741 101.244 66.184 98.7702 64.1973 95.5586C63.5467 94.4107 62.4304 91.5389 62.5808 91.3787C62.9089 91.2307 63.2469 91.1062 63.5921 91.0064L67.5956 89.7957L70.717 88.7847L71.0905 89.7476C71.7321 91.3249 72.6859 92.7535 73.8973 93.9513C76.5782 96.1828 80.8071 96.8294 83.3108 95.4111C84.1649 94.8782 84.8104 94.0709 85.1349 93.1298C85.4595 92.1887 85.4425 91.1733 85.087 90.2605C84.5728 89.0451 83.254 87.8382 79.4181 85.0957C74.9858 81.9583 73.1695 80.2093 71.7209 77.7232C70.8341 76.097 70.3234 74.2895 70.2246 72.4277C70.3161 70.343 70.7466 68.2778 71.4995 66.3116C73.6408 61.7872 77.9978 59.2222 83.4474 59.3247C85.9339 59.5292 88.3653 60.1039 90.6598 61.0293L90.6634 61.0141ZM67.2747 60.338L66.3511 64.2299L53.9361 61.6525L45.5963 96.7936L36.7918 94.9658L45.1335 59.8171L32.6879 57.2334L33.5899 53.4327C33.8622 52.114 34.2041 50.8085 34.6143 49.5218C34.6918 49.4661 42.28 51.0414 51.4592 52.9471L68.1579 56.4137L67.2747 60.338Z" fill="url(#paint0_linear_29_262)"/>
</g>
<defs>
<linearGradient id="paint0_linear_29_262" x1="108.326" y1="68.669" x2="13.3475" y2="46.1282" gradientUnits="userSpaceOnUse">
<stop stop-color="#2CABDE"/>
<stop offset="1" stop-color="#EBCB7F"/>
</linearGradient>
<clipPath id="clip0_29_262">
<rect width="100" height="100" fill="white" transform="matrix(0.979123 0.203268 -0.23091 0.972975 23.0908 0)"/>
</clipPath>
</defs>
</svg>
